<svg width="79" height="39" viewBox="0 0 79 39" fill="none" xmlns="http://www.w3.org/2000/svg">
<path fill-rule="evenodd" clip-rule="evenodd" d="M47.425 26.4569C43.6067 29.2409 38.0543 30.7274 33.2801 30.7274C26.5861 30.7274 20.5591 28.2834 16.0001 24.217C15.642 23.8972 15.9626 23.4617 16.3925 23.71C21.3129 26.5375 27.3966 28.2373 33.6803 28.2373C37.9187 28.2373 42.581 27.3715 46.8681 25.5749C47.5159 25.3032 48.057 25.9935 47.4237 26.4576L47.425 26.4569ZM49.0156 24.661C48.5284 24.0435 45.7897 24.3698 44.5507 24.5141C44.1755 24.5596 44.1182 24.2365 44.456 24.0045C46.6416 22.4848 50.2295 22.9235 50.6489 23.4325C51.0683 23.9414 50.5403 27.495 48.4856 29.1902C48.1696 29.4502 47.8694 29.3117 48.0096 28.9666C48.4705 27.8291 49.5054 25.2798 49.0156 24.6603" fill="#FF9900"/>
<path fill-rule="evenodd" clip-rule="evenodd" d="M44.6369 13.2776V11.8008C44.6355 11.7514 44.6444 11.7022 44.6629 11.6562C44.6815 11.6103 44.7093 11.5685 44.7447 11.5335C44.7801 11.4986 44.8224 11.4711 44.869 11.4528C44.9155 11.4345 44.9653 11.4257 45.0154 11.4271H51.712C51.9266 11.4271 52.0991 11.5798 52.0991 11.8008V13.0651C52.0965 13.277 51.9148 13.5545 51.5948 13.9933L48.1254 18.8852C49.4157 18.854 50.7758 19.0438 51.945 19.6944C52.2084 19.8413 52.2742 20.0565 52.3005 20.269V21.8453C52.3005 22.0598 52.0596 22.312 51.8068 22.182C49.7462 21.116 47.0095 20.999 44.7317 22.193C44.4993 22.3178 44.2557 22.0682 44.2557 21.8537V20.3568C44.2557 20.1163 44.2583 19.7068 44.5019 19.3408L48.5224 13.6481H45.0299C44.8153 13.6481 44.6428 13.4986 44.6428 13.2776H44.6369ZM20.2068 22.4933H18.1699C17.975 22.479 17.821 22.3347 17.8059 22.1508V11.8262C17.8059 11.6195 17.981 11.4557 18.1982 11.4557H20.0982C20.2957 11.4641 20.4537 11.6143 20.4682 11.8002V13.1496H20.5057C21.0014 11.845 21.9329 11.2366 23.1877 11.2366C24.4629 11.2366 25.2595 11.845 25.8329 13.1496C26.3267 11.845 27.4458 11.2366 28.6473 11.2366C29.5011 11.2366 30.4353 11.5844 31.0054 12.3657C31.6506 13.2341 31.5189 14.4964 31.5189 15.6027L31.5143 22.1196C31.5143 22.3263 31.3392 22.4933 31.122 22.4933H29.0811C28.8836 22.479 28.7144 22.3178 28.7144 22.1196V16.6401C28.7144 16.2046 28.7539 15.1178 28.6572 14.705C28.5057 14.0121 28.0495 13.8165 27.459 13.8165C26.9652 13.8165 26.4504 14.1415 26.2411 14.6628C26.0317 15.1841 26.0521 16.0551 26.0521 16.6407V22.1137C26.0521 22.3204 25.877 22.4875 25.6598 22.4875H23.6189C23.4129 22.4732 23.2522 22.312 23.2522 22.1137L23.2496 16.6407C23.2496 15.4889 23.4418 13.7937 21.9942 13.7937C20.53 13.7937 20.5873 15.446 20.5873 16.6407V22.1137C20.5873 22.3204 20.4122 22.4875 20.1949 22.4875L20.2068 22.4933ZM57.8648 11.2451C60.8878 11.2451 62.5244 13.8087 62.5244 17.0678C62.5244 20.217 60.716 22.715 57.8648 22.715C54.9023 22.715 53.2795 20.1514 53.2795 16.9573C53.2795 13.743 54.9161 11.2373 57.8648 11.2373V11.2451ZM57.8819 13.3452C56.3809 13.3452 56.2854 15.3654 56.2854 16.6245C56.2854 17.8835 56.2657 20.5797 57.8641 20.5797C59.4428 20.5797 59.5178 18.4068 59.5178 17.0827C59.5178 16.2117 59.4803 15.1698 59.215 14.3436C58.9859 13.6247 58.5303 13.3446 57.8825 13.3446L57.8819 13.3452ZM66.4455 22.4933H64.4165C64.219 22.479 64.0498 22.3178 64.0498 22.1196L64.0472 11.7924C64.0643 11.6026 64.2335 11.4557 64.4395 11.4557H66.329C66.5067 11.4641 66.6529 11.5831 66.693 11.7443V13.3238H66.7305C67.3007 11.912 68.0999 11.2386 69.5074 11.2386C70.4291 11.2386 71.3125 11.5636 71.8859 12.4554C72.4126 13.2809 72.4126 14.6706 72.4126 15.6696V22.1696C72.3896 22.3516 72.2204 22.4946 72.0202 22.4946H69.9807C69.7944 22.4803 69.6397 22.3451 69.62 22.1696V16.5621C69.62 15.433 69.7516 13.7801 68.3448 13.7801C67.849 13.7801 67.3935 14.1083 67.1598 14.6056C66.8734 15.2361 66.8359 15.8646 66.8359 16.5608V22.1209C66.8332 22.3276 66.6555 22.4946 66.4376 22.4946L66.4455 22.4933ZM39.2978 17.5546C39.2978 18.3385 39.3175 18.9846 38.916 19.6879C38.5921 20.2534 38.0766 20.6018 37.5058 20.6018C36.7237 20.6018 36.2649 20.0136 36.2649 19.1445C36.2649 17.4298 37.8212 17.1185 39.2965 17.1185V17.554L39.2978 17.5546ZM41.3505 22.4576C41.2155 22.5765 41.0213 22.585 40.8699 22.5057C40.1938 21.9512 40.0707 21.6932 39.7007 21.1647C38.5828 22.2905 37.7896 22.6272 36.3419 22.6272C34.6256 22.6272 33.2925 21.5833 33.2925 19.4923C33.2925 17.8595 34.1865 16.748 35.465 16.2046C36.571 15.7236 38.1154 15.6391 39.2965 15.5058V15.2458C39.2965 14.7674 39.334 14.2019 39.0463 13.7885C38.8001 13.418 38.3241 13.2653 37.9028 13.2653C37.126 13.2653 36.4347 13.6585 36.2662 14.4743C36.2319 14.6563 36.097 14.8337 35.9107 14.8422L33.9357 14.6329C33.7698 14.5958 33.5835 14.4639 33.6328 14.2104C34.0858 11.8444 36.253 11.132 38.1885 11.132C39.18 11.132 40.4756 11.392 41.2577 12.133C42.2491 13.0469 42.1543 14.2663 42.1543 15.5936V18.7285C42.1543 19.671 42.5493 20.0838 42.9226 20.594C43.0516 20.776 43.0806 20.9931 42.914 21.129L41.3564 22.4706L41.3538 22.4641L41.3505 22.4576ZM12.5873 17.5611C12.5873 18.345 12.607 18.9911 12.2054 19.6944C11.8815 20.2599 11.3693 20.6083 10.7953 20.6083C10.0132 20.6083 9.5576 20.0201 9.5576 19.151C9.5576 17.4363 11.1139 17.125 12.5859 17.125V17.5605L12.5873 17.5611ZM14.6399 22.4641C14.505 22.583 14.3108 22.5915 14.1593 22.5122C13.4832 21.9577 13.3693 21.6997 12.9901 21.1712C11.8723 22.297 11.081 22.6337 9.63133 22.6337C7.91835 22.6344 6.58325 21.5905 6.58325 19.5001C6.58325 17.8673 7.4799 16.7558 8.75575 16.2124C9.86175 15.7314 11.4062 15.6469 12.5873 15.5136V15.2536C12.5873 14.7752 12.6248 14.2097 12.341 13.7963C12.0909 13.4258 11.6169 13.2731 11.1975 13.2731C10.4207 13.2731 9.72745 13.6663 9.55168 14.4821C9.51744 14.6641 9.38248 14.8415 9.19947 14.85L7.22184 14.6407C7.05594 14.6036 6.87292 14.4717 6.919 14.2182C7.37457 11.8522 9.53917 11.1398 11.4747 11.1398C12.4661 11.1398 13.7617 11.3998 14.5438 12.1408C15.5353 13.0547 15.4405 14.2741 15.4405 15.6014V18.7363C15.4405 19.6788 15.8355 20.0916 16.2087 20.6018C16.3404 20.7838 16.3694 21.0009 16.2022 21.1368L14.6485 22.4706L14.6419 22.4641" fill="#221F1F"/>
</svg>
