<svg width="14" height="14" viewBox="0 0 14 14" fill="none" xmlns="http://www.w3.org/2000/svg">
<path fill-rule="evenodd" clip-rule="evenodd" d="M2.83243 2.50601C3.94031 1.39815 5.47205 0.712158 7.16318 0.712158C8.85431 0.712158 10.3861 1.39815 11.4939 2.50601L11.1918 2.80816L11.4939 2.50601C12.6018 3.61389 13.2878 5.14563 13.2878 6.83677C13.2878 8.5279 12.6018 10.0596 11.4939 11.1675C10.3861 12.2754 8.85431 12.9614 7.16318 12.9614C5.47205 12.9614 3.94031 12.2754 2.83243 11.1675L3.13457 10.8654L2.83243 11.1675C1.72456 10.0596 1.03857 8.5279 1.03857 6.83677C1.03857 5.14563 1.72456 3.6139 2.83243 2.50602L2.83243 2.50601ZM7.16318 1.56675C5.7078 1.56675 4.39089 2.15615 3.43672 3.11031C2.48256 4.06448 1.89317 5.38139 1.89317 6.83677C1.89317 8.29214 2.48257 9.60906 3.43672 10.5632C4.39089 11.5174 5.70781 12.1068 7.16318 12.1068C8.61856 12.1068 9.93547 11.5174 10.8896 10.5632C11.8438 9.60906 12.4332 8.29214 12.4332 6.83677C12.4332 5.38139 11.8438 4.06447 10.8896 3.1103C9.93548 2.15615 8.61856 1.56675 7.16318 1.56675Z" fill="#8C9196"/>
<path fill-rule="evenodd" clip-rule="evenodd" d="M2.83243 2.50601C3.94031 1.39815 5.47205 0.712158 7.16318 0.712158C8.85431 0.712158 10.3861 1.39815 11.4939 2.50601L11.1918 2.80816L11.4939 2.50601C12.6018 3.61389 13.2878 5.14563 13.2878 6.83677C13.2878 8.5279 12.6018 10.0596 11.4939 11.1675C10.3861 12.2754 8.85431 12.9614 7.16318 12.9614C5.47205 12.9614 3.94031 12.2754 2.83243 11.1675L3.13457 10.8654L2.83243 11.1675C1.72456 10.0596 1.03857 8.5279 1.03857 6.83677C1.03857 5.14563 1.72456 3.6139 2.83243 2.50602L2.83243 2.50601ZM7.16318 1.56675C5.7078 1.56675 4.39089 2.15615 3.43672 3.11031C2.48256 4.06448 1.89317 5.38139 1.89317 6.83677C1.89317 8.29214 2.48257 9.60906 3.43672 10.5632C4.39089 11.5174 5.70781 12.1068 7.16318 12.1068C8.61856 12.1068 9.93547 11.5174 10.8896 10.5632C11.8438 9.60906 12.4332 8.29214 12.4332 6.83677C12.4332 5.38139 11.8438 4.06447 10.8896 3.1103C9.93548 2.15615 8.61856 1.56675 7.16318 1.56675Z" fill="black" fill-opacity="0.2"/>
<path fill-rule="evenodd" clip-rule="evenodd" d="M7.16309 3.13342C7.55641 3.13342 7.87526 3.45227 7.87526 3.84559C7.87526 4.2389 7.55641 4.55775 7.16309 4.55775C6.76978 4.55775 6.45093 4.2389 6.45093 3.84559C6.45093 3.45227 6.76978 3.13342 7.16309 3.13342Z" fill="#8C9196"/>
<path fill-rule="evenodd" clip-rule="evenodd" d="M7.16309 3.13342C7.55641 3.13342 7.87526 3.45227 7.87526 3.84559C7.87526 4.2389 7.55641 4.55775 7.16309 4.55775C6.76978 4.55775 6.45093 4.2389 6.45093 3.84559C6.45093 3.45227 6.76978 3.13342 7.16309 3.13342Z" fill="black" fill-opacity="0.2"/>
<path fill-rule="evenodd" clip-rule="evenodd" d="M6.30859 5.6972C6.30859 5.46121 6.4999 5.2699 6.73589 5.2699H7.30562C7.54161 5.2699 7.73292 5.46121 7.73292 5.6972V9.68531C7.73292 9.9213 7.54161 10.1126 7.30562 10.1126C7.06963 10.1126 6.87832 9.9213 6.87832 9.68531V6.12449H6.73589C6.4999 6.12449 6.30859 5.93319 6.30859 5.6972Z" fill="#8C9196"/>
<path fill-rule="evenodd" clip-rule="evenodd" d="M6.30859 5.6972C6.30859 5.46121 6.4999 5.2699 6.73589 5.2699H7.30562C7.54161 5.2699 7.73292 5.46121 7.73292 5.6972V9.68531C7.73292 9.9213 7.54161 10.1126 7.30562 10.1126C7.06963 10.1126 6.87832 9.9213 6.87832 9.68531V6.12449H6.73589C6.4999 6.12449 6.30859 5.93319 6.30859 5.6972Z" fill="black" fill-opacity="0.2"/>
<path fill-rule="evenodd" clip-rule="evenodd" d="M5.88135 9.68548C5.88135 9.44949 6.07266 9.25818 6.30865 9.25818H8.3027C8.53869 9.25818 8.73 9.44949 8.73 9.68548C8.73 9.92147 8.53869 10.1128 8.3027 10.1128H6.30865C6.07266 10.1128 5.88135 9.92147 5.88135 9.68548Z" fill="#8C9196"/>
<path fill-rule="evenodd" clip-rule="evenodd" d="M5.88135 9.68548C5.88135 9.44949 6.07266 9.25818 6.30865 9.25818H8.3027C8.53869 9.25818 8.73 9.44949 8.73 9.68548C8.73 9.92147 8.53869 10.1128 8.3027 10.1128H6.30865C6.07266 10.1128 5.88135 9.92147 5.88135 9.68548Z" fill="black" fill-opacity="0.2"/>
</svg>
