<svg width="12" height="12" viewBox="0 0 12 12" fill="none" xmlns="http://www.w3.org/2000/svg">
<path fill-rule="evenodd" clip-rule="evenodd" d="M6.14601 0.551944C6.08059 0.413683 5.94597 0.326388 5.7988 0.326784C5.65162 0.327181 5.51744 0.4152 5.45269 0.553812L3.96724 3.73376L0.591074 4.24721C0.445552 4.26934 0.324608 4.37615 0.279045 4.52278C0.233482 4.6694 0.271193 4.83045 0.376337 4.93825L2.82254 7.44642L2.23825 10.9315C2.21265 11.0842 2.27233 11.2388 2.39199 11.3298C2.51164 11.4209 2.67032 11.4323 2.80076 11.3594L5.79981 9.68259L8.79952 11.3594C8.92988 11.4323 9.08845 11.4209 9.20808 11.33C9.32771 11.2391 9.38748 11.0846 9.36208 10.932L8.78201 7.44643L11.2242 4.93801C11.3292 4.83019 11.3668 4.66927 11.3213 4.52276C11.2757 4.37625 11.1549 4.26949 11.0095 4.24725L7.65171 3.73375L6.14601 0.551944ZM5.77575 8.81862C5.84615 8.81403 5.91749 8.82965 5.98159 8.86548L8.46442 10.2534L7.98552 7.37573C7.96363 7.24421 8.0049 7.10983 8.09584 7.01641L10.1258 4.93143L7.33976 4.50537C7.21424 4.48618 7.10569 4.40362 7.0493 4.28445L5.82874 1.70518L5.77575 8.81862Z" fill="#0B76E0"/>
</svg>
